<svg width="160" height="80" viewBox="0 0 160 80" fill="none" xmlns="http://www.w3.org/2000/svg">
<path d="M0 0H160V80H0V0Z" fill="#C4C4C4"/>
<path d="M57.544 48V44.712H48.256V31.2H44.608V48H57.544Z" fill="black"/>
<path d="M67.6358 48.336C73.3238 48.336 76.7558 44.544 76.7558 39.6C76.7558 34.656 73.3238 30.864 67.6358 30.864C61.9478 30.864 58.5158 34.656 58.5158 39.6C58.5158 44.544 61.9478 48.336 67.6358 48.336ZM67.6598 45.024C63.9878 45.024 62.2118 42.408 62.2118 39.6C62.2118 36.792 63.9878 34.176 67.6598 34.176C71.3078 34.176 73.0838 36.792 73.0838 39.6C73.0838 42.408 71.3078 45.024 67.6598 45.024Z" fill="black"/>
<path d="M91.9652 38.952V44.616C91.2692 44.88 90.2373 45.024 88.8453 45.024C84.7893 45.024 82.5332 42.816 82.5332 39.6C82.5332 36.6 84.5732 34.224 88.6292 34.224C91.1972 34.224 93.5973 35.16 95.2773 36.696L94.7253 32.472C93.3092 31.464 91.2212 30.864 88.4372 30.864C82.3172 30.864 78.7893 34.536 78.7893 39.6C78.7893 44.76 82.4612 48.336 88.6052 48.336C91.4372 48.336 94.1492 47.832 95.5892 47.112V38.952H91.9652Z" fill="black"/>
<path d="M107.315 48.336C113.003 48.336 116.436 44.544 116.436 39.6C116.436 34.656 113.003 30.864 107.315 30.864C101.627 30.864 98.1955 34.656 98.1955 39.6C98.1955 44.544 101.627 48.336 107.315 48.336ZM107.34 45.024C103.668 45.024 101.892 42.408 101.892 39.6C101.892 36.792 103.668 34.176 107.34 34.176C110.988 34.176 112.764 36.792 112.764 39.6C112.764 42.408 110.988 45.024 107.34 45.024Z" fill="black"/>
</svg>
