<svg width="182" height="87" viewBox="0 0 182 87" fill="none" xmlns="http://www.w3.org/2000/svg">
<path d="M90.5012 7.51925C100.934 7.51925 111.832 9.60819 122.89 13.725C131.902 17.0804 141.038 21.7823 150.042 27.699C158.797 33.4512 165.745 39.2622 170.158 43.2568C165.743 47.2514 158.797 53.0624 150.042 58.8146C141.038 64.7313 131.902 69.4308 122.89 72.7886C111.832 76.9054 100.936 78.9944 90.5012 78.9944C80.0659 78.9944 69.17 76.9054 58.112 72.7886C49.1007 69.4332 39.9648 64.7313 30.9605 58.8146C22.2053 53.0624 15.257 47.2514 10.8442 43.2568C15.2594 39.2622 22.2053 33.4512 30.9605 27.699C39.9648 21.7823 49.1007 17.0828 58.112 13.725C69.17 9.60819 80.0659 7.51925 90.5012 7.51925V7.51925ZM90.5012 0C40.5193 0 0 43.2568 0 43.2568C0 43.2568 40.5193 86.5136 90.5012 86.5136C140.483 86.5136 181.002 43.2568 181.002 43.2568C181.002 43.2568 140.483 0 90.5012 0V0Z" fill="#1D1D1D"/>
</svg>
