<svg width="113" height="45" viewBox="0 0 113 45" fill="none" xmlns="http://www.w3.org/2000/svg">
<path d="M85.904 45C96.528 45 104.976 39.3277 106.96 29.4958L112.912 0H105.232L99.6 27.7311C98.192 34.5378 93.008 38.1303 86.032 38.1303C78.48 38.1303 73.808 34.7899 73.808 28.4244C73.808 27.416 73.872 26.3445 74.128 25.2101L79.248 0H71.568L66.384 25.5882C66.128 26.9118 66 28.1723 66 29.3697C66 39.0756 74.32 45 85.904 45Z" fill="#1D1D1D"/>
<path d="M29.1441 32.0143L18.6481 0L9.49613 0L0.536133 45H7.96013L14.8721 10.4143L26.2001 45H27.3521L52.1841 10.9286L45.4001 45H52.9521L61.9121 0L52.0561 0L29.1441 32.0143Z" fill="black"/>
</svg>
