<svg width="622" height="420" viewBox="0 0 622 420" fill="none" xmlns="http://www.w3.org/2000/svg">
<path d="M0 0H622V420H0V0Z" fill="#E5E5E5"/>
<path d="M237.184 213.36C238.064 213.856 239.216 214.192 240.784 214.192C243.056 214.192 244.64 213.152 244.64 211.28C244.64 209.76 243.712 209.024 241.936 208.8L239.808 208.528C239.248 208.464 238.96 208.32 238.96 207.952C238.96 207.44 239.584 207.264 240.8 207.264C242.128 207.264 243.344 207.776 244.048 208.432L243.664 206.144C243.056 205.728 241.968 205.472 240.688 205.472C238.256 205.472 236.736 206.416 236.736 208.128C236.736 209.6 237.696 210.336 239.504 210.576L241.504 210.848C242.128 210.928 242.432 211.136 242.432 211.536C242.432 212.16 241.76 212.4 240.688 212.4C239.36 212.4 237.888 211.92 236.8 210.992L237.184 213.36Z" fill="black"/>
<path d="M250.407 214.192C253.335 214.192 255.191 212.336 255.191 209.824C255.191 207.312 253.335 205.472 250.407 205.472C247.479 205.472 245.639 207.312 245.639 209.824C245.639 212.336 247.479 214.192 250.407 214.192ZM250.407 212.176C248.935 212.176 248.023 211.136 248.023 209.824C248.023 208.528 248.935 207.488 250.407 207.488C251.895 207.488 252.807 208.528 252.807 209.824C252.807 211.136 251.895 212.176 250.407 212.176Z" fill="black"/>
<path d="M259.173 214V208.432C259.557 207.872 260.213 207.552 260.981 207.552C262.069 207.552 262.677 208.176 262.677 209.232V214H265.077V208.752C265.077 206.8 264.069 205.472 262.069 205.472C260.389 205.472 259.525 206.32 259.173 207.824V205.664H256.773V214H259.173Z" fill="black"/>
<path d="M271.344 214.192C274.272 214.192 276.128 212.336 276.128 209.824C276.128 207.312 274.272 205.472 271.344 205.472C268.416 205.472 266.576 207.312 266.576 209.824C266.576 212.336 268.416 214.192 271.344 214.192ZM271.344 212.176C269.872 212.176 268.96 211.136 268.96 209.824C268.96 208.528 269.872 207.488 271.344 207.488C272.832 207.488 273.744 208.528 273.744 209.824C273.744 211.136 272.832 212.176 271.344 212.176Z" fill="black"/>
<path d="M281.146 210.912C281.146 212.864 282.138 214.192 284.138 214.192C285.802 214.192 286.634 213.344 286.986 211.648V214H289.386V205.664H286.986V211.264C286.602 211.824 285.994 212.16 285.194 212.16C284.138 212.16 283.546 211.536 283.546 210.48V205.664H281.146V210.912Z" fill="black"/>
<path d="M293.767 214V208.432C294.151 207.872 294.807 207.552 295.575 207.552C296.663 207.552 297.271 208.176 297.271 209.232V214H299.671V208.752C299.671 206.8 298.663 205.472 296.663 205.472C294.983 205.472 294.119 206.32 293.767 207.824V205.664H291.367V214H293.767Z" fill="black"/>
<path d="M302.329 207.248L304.297 202.928V202.8H301.657L300.681 207.248H302.329Z" fill="black"/>
<path d="M306.864 204.832C307.792 204.832 308.288 204.288 308.288 203.504C308.288 202.736 307.792 202.16 306.864 202.16C305.952 202.16 305.44 202.736 305.44 203.504C305.44 204.288 305.952 204.832 306.864 204.832ZM308.064 214V205.664H305.664V214H308.064Z" fill="black"/>
<path d="M312.454 214V208.432C312.822 207.856 313.431 207.552 314.151 207.552C315.207 207.552 315.767 208.192 315.767 209.232V214H318.167V208.752C318.167 208.64 318.167 208.528 318.151 208.416C318.519 207.84 319.127 207.552 319.831 207.552C320.903 207.552 321.462 208.192 321.462 209.232V214H323.862V208.752C323.862 206.816 322.871 205.472 320.871 205.472C319.271 205.472 318.471 206.32 318.103 207.984C317.879 206.464 316.902 205.472 315.19 205.472C313.59 205.472 312.822 206.32 312.454 208.016V205.664H310.055V214H312.454Z" fill="black"/>
<path d="M328.173 214V208.432C328.541 207.856 329.149 207.552 329.869 207.552C330.925 207.552 331.485 208.192 331.485 209.232V214H333.885V208.752C333.885 208.64 333.885 208.528 333.869 208.416C334.237 207.84 334.845 207.552 335.549 207.552C336.621 207.552 337.181 208.192 337.181 209.232V214H339.581V208.752C339.581 206.816 338.589 205.472 336.589 205.472C334.989 205.472 334.189 206.32 333.821 207.984C333.597 206.464 332.621 205.472 330.909 205.472C329.309 205.472 328.541 206.32 328.173 208.016V205.664H325.773V214H328.173Z" fill="black"/>
<path d="M341.284 211.664C341.284 213.184 342.196 214.192 343.876 214.192C345.668 214.192 346.772 213.072 347.172 212.192V214H349.588V208.528C349.588 206.432 348.42 205.472 346.1 205.472C344.644 205.472 343.364 205.84 342.452 206.56L342.132 208.896C343.028 208.08 344.516 207.44 345.716 207.44C346.852 207.44 347.172 207.824 347.172 208.48V208.608L344.644 209.12C342.724 209.504 341.284 210.032 341.284 211.664ZM343.684 211.584C343.684 211.04 344.132 210.736 345.012 210.48L347.172 209.856V211.408C346.708 212 345.844 212.464 344.916 212.464C344.1 212.464 343.684 212.16 343.684 211.584Z" fill="black"/>
<path d="M351.155 209.504C351.155 211.664 352.562 213.408 355.186 213.408C356.706 213.408 357.939 212.384 358.211 211.088V212.064C358.211 213.776 357.602 214.864 355.618 214.864C353.906 214.864 352.323 214.096 351.203 213.008L351.715 215.776C352.739 216.432 354.242 216.88 355.794 216.88C358.962 216.88 360.626 215.168 360.626 212.256V205.664H358.211V207.904C357.891 206.496 356.802 205.472 355.186 205.472C352.578 205.472 351.155 207.296 351.155 209.504ZM353.555 209.504C353.555 208.4 354.29 207.44 355.842 207.44C357.01 207.44 357.795 207.984 358.211 208.72V210.288C357.779 211.056 357.026 211.552 355.842 211.552C354.29 211.552 353.555 210.592 353.555 209.504Z" fill="black"/>
<path d="M363.817 204.832C364.745 204.832 365.241 204.288 365.241 203.504C365.241 202.736 364.745 202.16 363.817 202.16C362.905 202.16 362.393 202.736 362.393 203.504C362.393 204.288 362.905 204.832 363.817 204.832ZM365.017 214V205.664H362.617V214H365.017Z" fill="black"/>
<path d="M369.408 214V208.432C369.792 207.872 370.448 207.552 371.216 207.552C372.304 207.552 372.912 208.176 372.912 209.232V214H375.312V208.752C375.312 206.8 374.304 205.472 372.304 205.472C370.624 205.472 369.76 206.32 369.408 207.824V205.664H367.008V214H369.408Z" fill="black"/>
<path d="M385.899 209.888C385.899 207.344 384.411 205.472 381.531 205.472C378.523 205.472 376.811 207.392 376.811 209.824C376.811 212.4 378.603 214.192 381.899 214.192C383.371 214.192 384.635 213.84 385.403 213.296L385.851 210.848C384.955 211.712 383.659 212.256 382.171 212.256C380.395 212.256 379.403 211.536 379.211 210.304H385.899V209.888ZM381.515 207.136C382.779 207.136 383.435 207.904 383.627 208.848H379.275C379.515 207.872 380.251 207.136 381.515 207.136Z" fill="black"/>
</svg>
